<!-- <svg xmlns="http://www.w3.org/2000/svg" viewBox="0 0 1440 320"><path fill="#de8787" fill-opacity="1" d="M0,288L34.3,250.7C68.6,213,137,139,206,144C274.3,149,343,235,411,250.7C480,267,549,213,617,197.3C685.7,181,754,203,823,229.3C891.4,256,960,288,1029,288C1097.1,288,1166,256,1234,208C1302.9,160,1371,96,1406,64L1440,32L1440,320L1405.7,320C1371.4,320,1303,320,1234,320C1165.7,320,1097,320,1029,320C960,320,891,320,823,320C754.3,320,686,320,617,320C548.6,320,480,320,411,320C342.9,320,274,320,206,320C137.1,320,69,320,34,320L0,320Z"></path></svg> -->

<!-- <svg xmlns="http://www.w3.org/2000/svg" viewBox="0 0 1440 320"><path fill="#de8787" fill-opacity="1" d="M0,128L16,154.7C32,181,64,235,96,250.7C128,267,160,245,192,229.3C224,213,256,203,288,202.7C320,203,352,213,384,218.7C416,224,448,224,480,213.3C512,203,544,181,576,192C608,203,640,245,672,256C704,267,736,245,768,240C800,235,832,245,864,224C896,203,928,149,960,144C992,139,1024,181,1056,213.3C1088,245,1120,267,1152,277.3C1184,288,1216,288,1248,288C1280,288,1312,288,1344,250.7C1376,213,1408,139,1424,101.3L1440,64L1440,320L1424,320C1408,320,1376,320,1344,320C1312,320,1280,320,1248,320C1216,320,1184,320,1152,320C1120,320,1088,320,1056,320C1024,320,992,320,960,320C928,320,896,320,864,320C832,320,800,320,768,320C736,320,704,320,672,320C640,320,608,320,576,320C544,320,512,320,480,320C448,320,416,320,384,320C352,320,320,320,288,320C256,320,224,320,192,320C160,320,128,320,96,320C64,320,32,320,16,320L0,320Z"></path></svg> -->

<svg xmlns="http://www.w3.org/2000/svg" viewBox="0 0 1440 320"><path fill="#59002d" fill-opacity="1" d="M0,256L30,266.7C60,277,120,299,180,277.3C240,256,300,192,360,186.7C420,181,480,235,540,261.3C600,288,660,288,720,261.3C780,235,840,181,900,181.3C960,181,1020,235,1080,256C1140,277,1200,267,1260,261.3C1320,256,1380,256,1410,256L1440,256L1440,320L1410,320C1380,320,1320,320,1260,320C1200,320,1140,320,1080,320C1020,320,960,320,900,320C840,320,780,320,720,320C660,320,600,320,540,320C480,320,420,320,360,320C300,320,240,320,180,320C120,320,60,320,30,320L0,320Z"></path></svg>