<?xml version="1.0" encoding="utf-8"?><svg xmlns="http://www.w3.org/2000/svg" xmlns:xlink="http://www.w3.org/1999/xlink" width="1920" height="946" preserveAspectRatio="xMidYMid" viewBox="0 0 1920 946" style="z-index:1;margin-right:-2px;display:block;background-repeat-y:initial;background-repeat-x:initial;background-color:rgb(221, 221, 221);animation-play-state:paused" ><g transform="" style="animation-play-state:paused" ><linearGradient id="lg-0.8092011162738606" x1="0" x2="1" y1="0" y2="0" style="animation-play-state:paused" ><stop stop-color="#de8787" offset="0" style="animation-play-state:paused" ></stop>

  
<stop stop-color="#f4d7d7" offset="1" style="animation-play-state:paused" ></stop></linearGradient>
<path d="M 0 0 M 0 825.697 Q 192 774.469 384 769.908 T 768 839.736 T 1152 778.701 T 1536 679.731 T 1920 659.686 L 1920 226.426 Q 1728 214.306 1536 208.19 T 1152 205.993 T 768 116.959 T 384 85.8391 T 0 50.6099 Z" fill="url(#lg-0.8092011162738606)" opacity="0.4" style="opacity:0.4;animation-play-state:paused" ></path>
<path d="M 0 0 M 0 819.244 Q 192 820.795 384 818.253 T 768 743.03 T 1152 779.132 T 1536 686.83 T 1920 655.785 L 1920 246.113 Q 1728 196.907 1536 188.608 T 1152 187.189 T 768 205.17 T 384 146.006 T 0 86.8004 Z" fill="url(#lg-0.8092011162738606)" opacity="0.4" style="opacity:0.4;animation-play-state:paused" ></path>
<path d="M 0 0 M 0 848.313 Q 192 826.935 384 824.286 T 768 791.868 T 1152 797.164 T 1536 747.19 T 1920 637.15 L 1920 225.214 Q 1728 216.474 1536 208.698 T 1152 232.235 T 768 157.217 T 384 121.496 T 0 82.0233 Z" fill="url(#lg-0.8092011162738606)" opacity="0.4" style="opacity:0.4;animation-play-state:paused" ></path>
<path d="M 0 0 M 0 842.46 Q 192 847.141 384 845.845 T 768 728.775 T 1152 747.922 T 1536 702.153 T 1920 639.079 L 1920 236.988 Q 1728 215.357 1536 206.934 T 1152 195.009 T 768 159.292 T 384 140.999 T 0 115.099 Z" fill="url(#lg-0.8092011162738606)" opacity="0.4" style="opacity:0.4;animation-play-state:paused" ></path></g></svg>